# OBJ-файл: Один вертикальный полигон (квад)

# Вершины (v): X-координата постоянна (например, 50), Y и Z меняются
# Эти 4 точки образуют квадрат в вертикальной плоскости.
v 50.0 0.0 0.0
v 50.0 10.0 0.0
v 50.0 10.0 10.0
v 50.0 0.0 10.0

# Текстурные координаты (vt)
vt 0.0 0.0
vt 1.0 0.0
vt 1.0 1.0
vt 0.0 1.0

# Нормали (vn): Направлена вдоль положительной оси X
vn 1.0 0.0 0.0

# Грань (f): Использует 4 вершины и соответствующие UV и нормали
# f V1/VT1/VN1 V2/VT2/VN2 V3/VT3/VN3 V4/VT4/VN4
f 1/1/1 2/2/1 3/3/1 4/4/1
